HIERARCHY
ROOT root     
{
	OFFSET 0.0000 0.0000 0.0000
	CHANNELS 6 Xposition Yposition Zposition Zrotation Yrotation Xrotation
	JOINT pelvis   
	{
		OFFSET 0.0000 0.0000 0.0000
		CHANNELS 3 Zrotation Yrotation Xrotation
		JOINT thorax   
		{
			OFFSET 0.0000 23.0750 -5.0000
			CHANNELS 3 Zrotation Yrotation Xrotation
			JOINT rclavicle
			{
				OFFSET 0.0000 28.0009 0.0000
				CHANNELS 3 Zrotation Yrotation Xrotation
				JOINT rhumerus 
				{
					OFFSET -18.5725 5.5939 0.0000
					CHANNELS 3 Zrotation Yrotation Xrotation
					JOINT rradius  
					{
						OFFSET -24.8459 0.0000 0.0000
						CHANNELS 3 Zrotation Yrotation Xrotation
						JOINT rhand    
						{
							OFFSET -24.5477 0.0000 0.0000
							CHANNELS 3 Zrotation Yrotation Xrotation
							End Site
							{
								OFFSET -8.1826 0.0000 0.0000
							}
						}
					}
				}
			}
			JOINT lclavicle
			{
				OFFSET 0.0000 28.0009 0.0000
				CHANNELS 3 Zrotation Yrotation Xrotation
				JOINT lhumerus 
				{
					OFFSET 18.5725 5.5939 0.0000
					CHANNELS 3 Zrotation Yrotation Xrotation
					JOINT lradius  
					{
						OFFSET 24.8459 0.0000 0.0000
						CHANNELS 3 Zrotation Yrotation Xrotation
						JOINT lhand    
						{
							OFFSET 24.5477 0.0000 0.0000
							CHANNELS 3 Zrotation Yrotation Xrotation
							End Site
							{
								OFFSET 8.1826 0.0000 0.0000
							}
						}
					}
				}
			}
			JOINT head     
			{
				OFFSET 0.0000 35.2030 0.0000
				CHANNELS 3 Zrotation Yrotation Xrotation
				End Site
				{
					OFFSET 0.0000 11.7343 0.0000
				}
			}
		}
		JOINT rfemur   
		{
			OFFSET -8.2817 0.0000 0.0000
			CHANNELS 3 Zrotation Yrotation Xrotation
			JOINT rtibia   
			{
				OFFSET 0.0000 -43.3627 0.0000
				CHANNELS 3 Zrotation Yrotation Xrotation
				JOINT rfoot    
				{
					OFFSET 0.0000 -38.2947 0.0000
					CHANNELS 3 Zrotation Yrotation Xrotation
					JOINT rtoes    
					{
						OFFSET 0.0000 0.0000 16.6054
						CHANNELS 3 Zrotation Yrotation Xrotation
						End Site
						{
							OFFSET 0.0000 0.0000 5.5351
						}
					}
				}
			}
		}
		JOINT lfemur   
		{
			OFFSET 8.2817 0.0000 0.0000
			CHANNELS 3 Zrotation Yrotation Xrotation
			JOINT ltibia   
			{
				OFFSET 0.0000 -43.3627 0.0000
				CHANNELS 3 Zrotation Yrotation Xrotation
				JOINT lfoot    
				{
					OFFSET 0.0000 -38.2947 0.0000
					CHANNELS 3 Zrotation Yrotation Xrotation
					JOINT ltoes    
					{
						OFFSET 0.0000 0.0000 16.6054
						CHANNELS 3 Zrotation Yrotation Xrotation
						End Site
						{
							OFFSET 0.0000 0.0000 5.5351
						}
					}
				}
			}
		}
	}
}
MOTION
Frames: 22
Frame Time: .0333333
-78.653 77.824 -10.303 165.467 84.9294 -179.403 0 -0 0 -0.488851 -17.0374 17.5504 24.2562 -14.6711 6.63667e-05 56.6236 -14.9544 3.14463 -8.62507e-07 77.3628 -1.07726e-06 -6.22163 0.797499 -0.0433004 -15.5214 11.9848 0.000185739 -48.7264 6.65995 6.81347 180 -84.3967 -180 0.684598 7.32796 0.0437995 2.24388 0.469485 -13.1175 4.12151 -6.86284 -51.203 -0 -0 53.2442 6.19203e-08 -8.07574 -4.35015 0.616601 -8.61408e-07 -12.1479 5.79921 10.0765 -10.7636 -0 -0 55.3909 5.14204e-09 -0.262599 -0.395402 0.00180002 -1.63408e-10 -78.6053 
-77.874 77.814 -10.178 164.21 84.9881 179.437 0 -0 0 -0.204402 -17.0565 17.3275 24.2824 -14.6245 2.56044e-06 56.5611 -14.6492 3.15147 -0 77.6817 -0 -6.28332 0.751506 -0.0411994 -15.4163 11.9402 -6.52974e-05 -49.4557 7.29837 6.93716 180 -85.1194 -180 0.499694 7.27592 0.0317994 2.21381 0.35859 -12.9018 4.04172 -6.65941 -50.9392 -0 -0 53.7439 2.01963e-06 -8.19302 -5.05135 0.726296 -1.81458e-06 -11.9174 5.87716 9.70078 -10.6098 -0 -0 55.6199 3.06235e-08 -0.342202 0.720287 -0.00430001 -3.82896e-08 -79.1538 
-77.109 77.813 -10.051 163.025 85.0385 178.356 0 -0 0 0.0783659 -17.0605 17.1145 24.3138 -14.5627 -0.000167482 56.5119 -14.3428 3.14147 -0 78.0204 -0 -6.37593 0.697801 -0.0389011 -15.2949 11.8943 -2.94687e-05 -50.2012 7.94208 7.02987 180 -85.8416 -180 0.300708 7.21872 0.0190004 2.1917 0.260397 -12.7168 3.95925 -6.42844 -50.6718 -0 -0 54.2026 4.51326e-06 -8.31422 -5.69438 0.830694 -1.16168e-06 -11.6168 5.94782 9.34477 -10.5385 -0 -0 55.931 -2.25011e-08 -0.416998 1.90773 -0.0139003 2.50784e-08 -79.57 
-76.359 77.823 -9.9221 161.961 85.1028 177.406 0 -0 0 0.361598 -17.0512 16.9137 24.3515 -14.4835 -7.22584e-05 56.4725 -14.0301 3.12107 -2.80239e-06 78.3817 -2.95945e-06 -6.49582 0.640696 -0.0363992 -15.1653 11.8448 6.80697e-05 -50.9488 8.59661 7.09252 180 -86.5554 -180 0.1039 7.16184 0.00649994 2.17619 0.177494 -12.5639 3.88399 -6.17712 -50.3953 -0 -0 54.6143 4.53144e-06 -8.44498 -6.30431 0.934013 1.08208e-06 -11.2486 6.0207 9.01817 -10.5522 -0 -0 56.3326 -5.10767e-07 -0.499598 3.18031 -0.0276997 -9.62111e-08 -79.8169 
-75.623 77.844 -9.7893 161.058 85.17 176.621 0 -0 0 0.645336 -17.0301 16.7324 24.3952 -14.3877 -4.39682e-05 56.4416 -13.7071 3.0973 -1.19676e-06 78.7607 -9.82294e-07 -6.63881 0.5837 -0.0339 -15.0331 11.7943 -3.83968e-06 -51.6828 9.26342 7.13253 180 -87.2868 -180 -0.0736994 7.10961 -0.00459993 2.16627 0.110387 -12.4396 3.82589 -5.91419 -50.1049 -0 -0 54.9685 -1.73057e-06 -8.58809 -6.90087 1.03961 1.43262e-07 -10.8445 6.10353 8.72855 -10.6522 -0 -0 56.8284 5.47089e-07 -0.596302 4.54538 -0.0472995 -5.37526e-07 -79.8367 
-74.9 77.876 -9.6518 160.345 85.2361 176.027 0 -0 0 0.928628 -16.9979 16.5695 24.4468 -14.2768 -1.1056e-05 56.4122 -13.3701 3.07722 -1.02072e-06 79.1418 -1.23513e-06 -6.79868 0.530704 -0.0315002 -14.8998 11.7414 0.000110144 -52.3862 9.9419 7.16151 180 -87.9663 -180 -0.217995 7.06469 -0.0134996 2.16229 0.0575002 -12.3378 3.79249 -5.6497 -49.7954 -0 -0 55.2601 2.43584e-07 -8.74293 -7.49924 1.14989 -4.12037e-07 -10.4333 6.20118 8.48213 -10.8379 -0 -0 57.4156 2.51146e-07 -0.705504 6.00138 -0.0738002 1.71773e-07 -79.554 
-74.192 77.92 -9.5089 159.829 85.3074 175.63 0 -0 0 1.20821 -16.9548 16.4258 24.5023 -14.1555 -8.26316e-06 56.389 -13.0172 3.06615 -1.805e-06 79.5257 -1.50189e-06 -6.96952 0.4848 -0.0295002 -14.7713 11.6897 -7.74305e-05 -53.0424 10.6306 7.19375 180 -88.6626 -180 -0.319997 7.0283 -0.0195997 2.16593 0.0155064 -12.2474 3.78875 -5.39319 -49.4618 -0 -0 55.4793 -5.6483e-06 -8.90509 -8.107 1.26586 3.88156e-06 -10.0408 6.3149 8.28285 -11.1063 -0 -0 58.0875 1.6918e-07 -0.816296 7.53471 -0.106998 -9.00002e-08 -78.8765 
-73.495 77.974 -9.3606 159.491 85.3903 175.413 0 -0 0 1.48008 -16.8978 16.2984 24.564 -14.0259 -1.92999e-05 56.369 -12.6487 3.06864 -1.10623e-06 79.9067 -1.32051e-06 -7.14543 0.448201 -0.0279997 -14.6454 11.638 5.89426e-05 -53.6384 11.326 7.24598 180 -89.3194 180 -0.377505 6.9991 -0.0231003 2.1794 -0.0203959 -12.156 3.81624 -5.15384 -49.1019 -0 -0 55.6249 -1.66614e-06 -9.06698 -8.72526 1.38672 -1.62628e-06 -9.68439 6.44276 8.13189 -11.4534 -0 -0 58.838 9.28863e-08 -0.90831 9.11728 -0.143902 -2.78675e-07 -77.7018 
-72.811 78.037 -9.2082 159.263 85.4816 175.302 0 -0 0 1.73439 -16.8253 16.1871 24.6261 -13.8918 8.76111e-05 56.3559 -12.2661 3.08845 -0 80.2806 -0 -7.32209 0.423397 -0.0271003 -14.5239 11.5912 -0.000169249 -54.1583 12.0246 7.33437 -180 -89.8134 180 -0.397105 6.97474 -0.0242003 2.20646 -0.0550157 -12.0519 3.86993 -4.93883 -48.7126 -0 -0 55.6961 -1.77088e-06 -9.21837 -9.34467 1.50947 -1.91299e-06 -9.40742 6.57517 8.02813 -11.8723 -0 -0 59.654 -1.13366e-06 -0.948896 10.7069 -0.176303 6.22897e-07 -75.9588 
-72.137 78.109 -9.0514 159.156 85.5593 175.306 0 -0 0 1.97275 -16.7319 16.0853 24.6916 -13.7576 8.57936e-06 56.3509 -11.8744 3.12381 -3.49802e-06 80.6443 -3.6548e-06 -7.49463 0.406701 -0.0265996 -14.404 11.5503 -3.81064e-06 -54.5952 12.7151 7.47819 -2.49275e-05 -89.3812 2.5178e-05 -0.391104 6.95211 -0.0238005 2.2475 -0.0957037 -11.9249 3.95023 -4.75159 -48.2956 -0 -0 55.6967 -6.79843e-06 -9.35057 -9.95909 1.63118 -1.28045e-06 -9.16035 6.71066 7.97273 -12.361 -0 -0 60.5286 3.49544e-06 -0.911798 12.2517 -0.193508 3.71345e-06 -73.5021 
-71.473 78.188 -8.8917 159.099 85.6434 175.358 0 -0 0 2.19038 -16.6133 15.9903 24.7541 -13.6258 0.000116493 56.3589 -11.4784 3.17461 -2.07602e-06 81.0054 -1.77324e-06 -7.66193 0.397202 -0.0266003 -14.2861 11.5197 6.93261e-05 -54.941 13.3893 7.68918 -2.81321e-05 -88.8134 2.82474e-05 -0.378702 6.92805 -0.0229001 2.30417 -0.147781 -11.7672 4.05031 -4.59354 -47.8517 -0 -0 55.6325 8.1464e-06 -9.45526 -10.555 1.74729 4.78637e-06 -8.94378 6.83964 7.96364 -12.9114 -0 -0 61.4519 -7.70748e-07 -0.760196 13.6921 -0.179896 7.68268e-07 -70.3036 
-70.819 78.273 -8.7316 158.959 85.7293 175.32 0 -0 0 2.37525 -16.4644 15.9031 24.8123 -13.4984 -0.000206544 56.384 -11.0835 3.2401 -3.7886e-06 81.3528 -3.94529e-06 -7.82364 0.395903 -0.0271009 -14.17 11.4956 3.87878e-05 -55.1895 14.047 7.9725 -4.63663e-06 -88.1591 4.78759e-06 -0.385998 6.90001 -0.0233 2.37889 -0.215194 -11.5729 4.15686 -4.4645 -47.3841 -0 -0 55.5165 -5.00985e-06 -9.52482 -11.1157 1.85282 -1.29466e-06 -8.78045 6.94569 7.99601 -13.5162 -0 -0 62.4074 9.23563e-07 -0.455797 14.9635 -0.1177 4.87243e-08 -66.4762 
-70.172 78.365 -8.5724 158.677 85.829 175.137 0 -0 0 2.52795 -16.2805 15.8197 24.8623 -13.3733 -4.75682e-05 56.428 -10.6967 3.31606 -2.23489e-06 81.687 -1.93222e-06 -7.98011 0.3982 -0.0278 -14.0547 11.4826 2.00935e-05 -55.3436 14.6744 8.33177 -5.4029e-06 -87.5173 5.64162e-06 -0.436297 6.8665 -0.0261997 2.47059 -0.301501 -11.3418 4.26359 -4.35975 -46.8978 -0 -0 55.3542 1.29943e-05 -9.55787 -11.6319 1.94441 4.52087e-06 -8.64511 7.02256 8.06791 -14.1724 -0 -0 63.3892 -5.38641e-08 0.0228002 16.0136 0.00629988 -3.43821e-08 -62.0998 
-69.534 78.46 -8.4157 158.216 85.9036 174.759 0 -0 0 2.64524 -16.0578 15.7436 24.9036 -13.2493 0.000158687 56.4972 -10.3248 3.39839 -2.8559e-06 82.0255 -3.28383e-06 -8.13314 0.402798 -0.0285994 -13.9408 11.4749 -1.10812e-05 -55.4044 15.2728 8.76108 0 -86.8628 0 -0.553809 6.82832 -0.0330004 2.57764 -0.408612 -11.0786 4.36134 -4.27424 -46.394 -0 -0 55.1609 -1.32262e-06 -9.55538 -12.0965 2.02045 3.79963e-06 -8.52119 7.06063 8.17438 -14.8725 -0 -0 64.3837 -2.14048e-06 0.689003 16.8045 0.199199 -1.85902e-06 -57.408 
-68.903 78.561 -8.2624 157.535 86.0022 174.16 0 -0 0 2.73244 -15.7951 15.6729 24.9339 -13.1259 0.000177383 56.5857 -9.97228 3.48357 -1.4955e-06 82.3667 -1.70941e-06 -8.28515 0.404997 -0.0293001 -13.8296 11.4798 1.72589e-05 -55.3796 15.8259 9.26003 0 -86.1942 0 -0.752489 6.78687 -0.0445994 2.6953 -0.537698 -10.7894 4.44694 -4.20016 -45.8786 -0 -0 54.9401 3.13095e-05 -9.52384 -12.5101 2.08117 -5.5279e-07 -8.38074 7.05827 8.31105 -15.6185 -0 -0 65.3856 -1.1775e-06 1.53878 17.3133 0.458102 8.27042e-06 -52.6515 
-68.28 78.666 -8.1137 156.584 86.1009 173.284 0 -0 0 2.79059 -15.4912 15.6095 24.9528 -13 -2.99117e-05 56.6957 -9.64344 3.56841 -1.78446e-06 82.7057 -1.57058e-06 -8.43883 0.403397 -0.0298004 -13.7218 11.4972 -6.15446e-05 -55.2777 16.3278 9.81732 -1.85181e-06 -85.5024 2.00287e-06 -1.04109 6.74644 -0.0613991 2.81975 -0.687597 -10.4823 4.51416 -4.13218 -45.353 -0 -0 54.7018 -3.44277e-05 -9.47023 -12.8755 2.12881 2.98729e-06 -8.20516 7.0103 8.47016 -16.4054 -0 -0 66.3861 6.045e-07 2.55567 17.5342 0.770405 3.04344e-06 -48.0684 
-67.664 78.775 -7.9716 155.299 86.2057 172.066 0 -0 0 2.81574 -15.1471 15.558 24.9577 -12.8667 -0.000129261 56.8265 -9.34077 3.65098 -2.33924e-06 83.0553 -2.64163e-06 -8.59463 0.398798 -0.0300001 -13.6226 11.5136 8.43433e-05 -55.1095 16.7929 10.4037 -2.25005e-06 -84.8066 2.46373e-06 -1.42463 6.71187 -0.0835022 2.94701 -0.855206 -10.1676 4.5558 -4.06622 -44.8196 -0 -0 54.4518 -1.92388e-05 -9.40289 -13.1966 2.16505 -8.55884e-06 -8.04466 6.90969 8.64154 -17.2329 -0 -0 67.3719 2.17762e-05 3.71243 17.4831 1.11669 3.84134e-06 -43.9885 
-67.055 78.888 -7.8359 153.709 86.2973 170.531 0 -0 0 2.81798 -14.7655 15.5197 24.9505 -12.7236 -0.000148699 56.9706 -9.06436 3.73051 -4.99322e-06 83.405 -5.14973e-06 -8.75502 0.388503 -0.0296997 -13.5301 11.5453 -2.6807e-05 -54.8907 17.1985 11.0224 -3.07621e-06 -84.0767 2.77391e-06 -1.88583 6.68976 -0.110202 3.07077 -1.03892 -9.8556 4.57488 -3.99858 -44.2805 -0 -0 54.1905 3.95757e-05 -9.33103 -13.4875 2.19456 -7.42232e-06 -7.85128 6.76167 8.82071 -18.1026 -0 -0 68.3433 -3.38289e-06 4.96356 17.1649 1.46815 -1.17763e-05 -40.3925 
-66.453 79.005 -7.7075 151.765 86.3968 168.639 0 -0 0 2.79619 -14.3513 15.4958 24.9295 -12.5672 0.000186699 57.1262 -8.81314 3.80806 -1.46489e-06 83.776 -1.31375e-06 -8.91902 0.374807 -0.0292001 -13.4491 11.5755 -5.41008e-05 -54.6307 17.5671 11.6399 -5.12861e-06 -83.3502 5.20482e-06 -2.41111 6.6883 -0.1409 3.18624 -1.23421 -9.55447 4.5689 -3.92942 -43.7364 -0 -0 53.9211 -1.63486e-05 -9.26141 -13.753 2.22006 -5.99761e-06 -7.67565 6.56434 8.99892 -19.0142 -0 -0 69.2941 1.63385e-06 6.26538 16.6149 1.79809 -1.31174e-05 -37.4715 
-65.858 79.126 -7.5864 149.532 86.4762 166.448 0 -0 0 2.75517 -13.9106 15.489 24.8958 -12.3999 8.62369e-05 57.2865 -8.58375 3.88609 -0 84.1473 -0 -9.08574 0.358399 -0.0285006 -13.38 11.6083 -2.22153e-05 -54.3445 17.8971 12.2442 -4.45412e-06 -82.6204 4.6107e-06 -2.97199 6.71506 -0.1744 3.28872 -1.43775 -9.27064 4.54084 -3.85933 -43.1872 -0 -0 53.6418 -4.90071e-06 -9.19907 -14.0052 2.24447 4.02675e-07 -7.52334 6.32169 9.1728 -19.9707 -0 -0 70.2159 -2.53e-05 7.56702 15.8575 2.07892 8.40357e-06 -35.1565 
-65.269 79.25 -7.4724 147.004 86.551 163.957 0 -0 0 2.6986 -13.4476 15.4956 24.848 -12.2217 4.41906e-05 57.4452 -8.37098 3.96925 -1.65612e-06 84.5262 -1.50503e-06 -9.25226 0.340804 -0.0276001 -13.3246 11.6378 -4.78445e-05 -54.0414 18.2041 12.8155 -2.28974e-06 -81.9014 1.98711e-06 -3.53867 6.77793 -0.209598 3.37367 -1.6463 -9.0079 4.4935 -3.79133 -42.633 -0 -0 53.3497 -2.58141e-05 -9.14616 -14.2489 2.26934 -2.73129e-06 -7.41784 6.03701 9.3386 -20.9702 -0 -0 71.1037 -1.70502e-05 8.82073 14.9271 2.28909 9.08551e-06 -33.3842 
-64.685 79.375 -7.3652 144.251 86.6074 161.235 0 -0 0 2.62921 -12.9698 15.5199 24.7865 -12.0328 0.000112703 57.6007 -8.17218 4.05998 -3.24876e-06 84.9119 -3.55091e-06 -9.4162 0.323998 -0.0267002 -13.2765 11.6813 -8.29845e-05 -53.7368 18.47 13.3602 -1.49733e-06 -81.1945 1.28325e-06 -4.07371 6.88207 -0.245099 3.4382 -1.85757 -8.7688 4.43104 -3.72905 -42.074 -0 -0 53.0475 -3.19502e-05 -9.10181 -14.4905 2.29567 9.35182e-07 -7.35972 5.7146 9.49485 -22.0145 -0 -0 71.9505 2.79218e-05 9.98345 13.8556 2.4139 8.66106e-06 -32.0317 
